<?xml version="1.0" encoding="UTF-8" standalone="no"?>
<!DOCTYPE svg PUBLIC "-//W3C//DTD SVG 1.1//EN"
 "http://www.w3.org/Graphics/SVG/1.1/DTD/svg11.dtd">
<!-- Generated by graphviz version 2.43.0 (0)
 -->
<!-- Title: %3 Pages: 1 -->
<svg width="358pt" height="260pt"
 viewBox="0.00 0.00 358.00 260.00" xmlns="http://www.w3.org/2000/svg" xmlns:xlink="http://www.w3.org/1999/xlink">
<g id="graph0" class="graph" transform="scale(1 1) rotate(0) translate(4 256)">
<title>%3</title>
<polygon fill="white" stroke="transparent" points="-4,4 -4,-256 354,-256 354,4 -4,4"/>
<!-- &#45;7905464623561759414 -->
<g id="node1" class="node">
<title>&#45;7905464623561759414</title>
<polygon fill="none" stroke="black" points="350,-252 0,-252 0,-216 350,-216 350,-252"/>
<text text-anchor="middle" x="175" y="-229" font-family="Helvetica,sans-Serif" font-size="20.00">Sub(Sum, 29.152264343489506)</text>
</g>
<!-- &#45;2079626592409733561 -->
<g id="node2" class="node">
<title>&#45;2079626592409733561</title>
<polygon fill="none" stroke="black" points="262,-180 88,-180 88,-144 262,-144 262,-180"/>
<text text-anchor="middle" x="175" y="-157" font-family="Helvetica,sans-Serif" font-size="20.00">Sum(Projection)</text>
</g>
<!-- &#45;2079626592409733561&#45;&gt;&#45;7905464623561759414 -->
<g id="edge1" class="edge">
<title>&#45;2079626592409733561&#45;&gt;&#45;7905464623561759414</title>
<path fill="none" stroke="black" d="M175,-180.3C175,-188.02 175,-197.29 175,-205.89"/>
<polygon fill="black" stroke="black" points="171.5,-205.9 175,-215.9 178.5,-205.9 171.5,-205.9"/>
</g>
<!-- &#45;1268807657640866350 -->
<g id="node3" class="node">
<title>&#45;1268807657640866350</title>
<polygon fill="none" stroke="black" points="311.5,-108 38.5,-108 38.5,-72 311.5,-72 311.5,-108"/>
<text text-anchor="middle" x="175" y="-85" font-family="Helvetica,sans-Serif" font-size="20.00">Projection(FromPandas, a)</text>
</g>
<!-- &#45;1268807657640866350&#45;&gt;&#45;2079626592409733561 -->
<g id="edge2" class="edge">
<title>&#45;1268807657640866350&#45;&gt;&#45;2079626592409733561</title>
<path fill="none" stroke="black" d="M175,-108.3C175,-116.02 175,-125.29 175,-133.89"/>
<polygon fill="black" stroke="black" points="171.5,-133.9 175,-143.9 178.5,-133.9 171.5,-133.9"/>
</g>
<!-- 2618396298372971971 -->
<g id="node4" class="node">
<title>2618396298372971971</title>
<polygon fill="none" stroke="black" points="243.5,-36 106.5,-36 106.5,0 243.5,0 243.5,-36"/>
<text text-anchor="middle" x="175" y="-13" font-family="Helvetica,sans-Serif" font-size="20.00">FromPandas</text>
</g>
<!-- 2618396298372971971&#45;&gt;&#45;1268807657640866350 -->
<g id="edge3" class="edge">
<title>2618396298372971971&#45;&gt;&#45;1268807657640866350</title>
<path fill="none" stroke="black" d="M175,-36.3C175,-44.02 175,-53.29 175,-61.89"/>
<polygon fill="black" stroke="black" points="171.5,-61.9 175,-71.9 178.5,-61.9 171.5,-61.9"/>
</g>
</g>
</svg>
